<svg width="163" height="32" viewBox="0 0 163 32" fill="none" xmlns="http://www.w3.org/2000/svg">
<path d="M98.0293 14.2249H103.031L106.382 5.3335H101.374L98.0293 14.2249Z" fill="white"/>
<path d="M15.6537 15.1868H15.5388L11.6919 26.2134H9.1394L5.28646 15.1868H5.17154L4.28239 26.3283H0L1.68755 7.5293H6.24214L10.4157 18.3744L14.5831 7.5293H19.1437L20.8313 26.3283H16.5429L15.6537 15.1868Z" fill="white"/>
<path d="M29.7652 7.18408C34.9852 7.18408 39.2252 11.4241 39.2252 16.9163C39.2252 22.4084 35.1666 26.6666 29.7652 26.6666C24.2066 26.6666 20.2871 22.4084 20.2871 16.9163C20.2871 11.4241 24.5937 7.18408 29.7652 7.18408ZM29.7652 22.5233C33.1827 22.5233 34.598 19.7167 34.598 16.9163C34.598 14.1097 33.092 11.3092 29.7652 11.3092C26.4627 11.3092 24.9143 14.1097 24.9143 16.9163C24.9143 19.7167 26.2571 22.5233 29.7652 22.5233Z" fill="white"/>
<path d="M44.7154 7.5293C49.8627 7.5293 54.1935 11.4488 54.1935 16.9167C54.1935 22.4088 49.8869 26.3283 44.7154 26.3283H39.2656V7.5293H44.7154ZM44.2194 22.4995C47.3828 22.4995 49.5482 20.0861 49.5724 16.9409C49.5724 13.7956 47.407 11.358 44.2194 11.358H43.5541V22.4995H44.2194Z" fill="white"/>
<path d="M70.4719 26.3283H65.8689L64.4777 22.5661H57.3223L55.9311 26.3283H51.3281L58.913 7.5293H62.8809L70.4719 26.3283ZM60.9212 13.3359H60.8788L58.78 18.8039H63.02L60.9212 13.3359Z" fill="white"/>
<path d="M78.625 7.5293H83.4518L88.1939 19.8805L92.9359 7.5293H97.7687L89.8814 26.3283H86.5063L78.625 7.5293Z" fill="white"/>
<path d="M111.946 22.5661H118.418V26.3283H107.664V7.5293H111.946V22.5661Z" fill="white"/>
<path d="M126.5 7.18408C131.72 7.18408 135.954 11.4241 135.954 16.9163C135.954 22.4084 131.901 26.6666 126.5 26.6666C120.941 26.6666 117.021 22.4084 117.021 16.9163C117.021 11.4241 121.328 7.18408 126.5 7.18408ZM126.5 22.5233C129.917 22.5233 131.332 19.7167 131.332 16.9163C131.332 14.1097 129.826 11.3092 126.5 11.3092C123.197 11.3092 121.643 14.1097 121.643 16.9163C121.643 19.7167 122.991 22.5233 126.5 22.5233Z" fill="white"/>
<path d="M142.722 7.5293C146.212 7.5293 148.855 9.41646 148.855 13.1121C148.855 15.9368 147.307 17.83 145.002 18.5559L151.474 26.3283H146.031L140.284 18.9006V26.3283H136.002V7.5293H142.722ZM140.786 15.8703C142.401 15.8703 144.343 15.7554 144.343 13.4085C144.343 11.0617 142.401 10.9467 140.786 10.9467H140.284V15.8703H140.786Z" fill="white"/>
<path d="M162.471 11.2855H155.999V15.0235H162.199V18.7857H155.999V22.5661H162.471V26.3283H151.717V7.5293H162.471V11.2855Z" fill="white"/>
</svg>
